<?xml version="1.0" encoding="UTF-8"?>
<svg width="24px" height="24px" viewBox="0 0 24 24" version="1.1" xmlns="http://www.w3.org/2000/svg" xmlns:xlink="http://www.w3.org/1999/xlink">
    <!-- Generator: Sketch 58 (84663) - https://sketch.com -->
    <title>moon</title>
    <desc>Created with Sketch.</desc>
    <g id="moon" stroke="none" stroke-width="1" fill="none" fill-rule="evenodd">
        <g fill="#354E67" fill-rule="nonzero" id="Shape">
            <path d="M12.3555252,24 C17.7399862,24 22.3174438,20.5681406 23.9619306,15.8270625 C24.0646689,15.5308594 23.9544788,15.2041406 23.6915032,15.0252188 C23.4284796,14.8462969 23.0759865,14.8581563 22.8262799,15.054375 C21.2714549,16.2760781 19.3962996,16.921875 17.4035024,16.921875 C12.605328,16.921875 8.70175121,13.1368125 8.70175121,8.484375 C8.70175121,5.60760937 10.2731144,2.85510937 12.8026318,1.30110937 C13.0739245,1.13442187 13.1997393,0.813140625 13.1114237,0.512578125 C13.0247908,0.21778125 12.7525847,0.012421875 12.4396101,0.003421875 C12.422495,0.00215625 12.3920629,-7.10542736e-15 12.3555252,-7.10542736e-15 C5.5828705,-7.10542736e-15 0,5.38860937 0,12 C0,18.609 5.5800821,24 12.3555252,24 Z M10.1230693,1.62904687 C8.27618269,3.49725 7.25947201,5.95959375 7.25947201,8.484375 C7.25947201,13.9122188 11.8100552,18.328125 17.4035024,18.328125 C18.8680408,18.328125 20.314118,18.0122813 21.6338516,17.4178594 C19.70663,20.5828594 16.2086703,22.59375 12.3555252,22.59375 C6.33795175,22.59375 1.44227921,17.8414219 1.44227921,12 C1.44227921,6.90089062 5.17225361,2.63175 10.1230693,1.62904687 Z"></path>
        </g>
    </g>
</svg>